# xmcd
#
# Track frame offsets:
#	150
#	29086
#	50924
#	74783
#	102481
#	127746
#	152330
#	180249
#	204623
#	231106
#
# Disc length: 3459 seconds
#
# Revision: 524283
# Processed by: cddbd v1.5.2PL0 Copyright (c) Steve Scherf et al.
# Submitted via: EZCDAudioConverter 8.0.2.1
#
DISCID=8b0d810a
DTITLE=Mạnh Quỳnh - Đời Bé Đời Tôi
DYEAR=1996
DGENRE=
TTITLE0=Đời Bé Đời Tôi
TTITLE1=Đường sang nhà em
TTITLE2=Phận gái thuyền quyên
TTITLE3=Khóc thầm
TTITLE4=tình đời tay trắng
TTITLE5=Tôi muốn quên người
TTITLE6=Xin làm người tình cô đơn
TTITLE7=Xa người mình yêu
TTITLE8=Tình tuyệt vọng
TTITLE9=Một lần cuối
EXTD=
EXTT0=
EXTT1=
EXTT2=
EXTT3=
EXTT4=
EXTT5=
EXTT6=
EXTT7=
EXTT8=
EXTT9=
PLAYORDER=
